<svg width="295" height="88" viewBox="0 0 295 88" fill="none" xmlns="http://www.w3.org/2000/svg">
<path d="M4.2 19C5.9 10 10 5.5 16.5 5.5C20 5.5 22.9 6.7 25.2 9.1C27.6 11.5 29.2 14.8 30 19C30.1 19.5 30.4 21.85 30.9 26.05C31.5 30.25 32.15 34.75 32.85 39.55C33.65 44.35 34.5 49.25 35.4 54.25C36.3 59.15 37.35 63.25 38.55 66.55C39.75 69.85 40.9 71.5 42 71.5C44 71.5 45.9 66.95 47.7 57.85C49.6 48.75 50.7 40.8 51 34C51.6 16.9 52.55 7 53.85 4.3C55.25 1.5 56.8 0.0999962 58.5 0.0999962C61.5 0.0999962 63 1.59999 63 4.59999C63 5.39999 62.65 6.49999 61.95 7.89999C61.25 9.29999 60.6 18.1 60 34.3C59.8 39.2 59.1 45.3 57.9 52.6C56.7 60 55.4 65.7 54 69.7C51.4 76.9 47.5 80.5 42.3 80.5C37.2 80.5 33.4 77.5 30.9 71.5C27.7 63.8 25 50.6 22.8 31.9C22 24.8 21.5 21.1 21.3 20.8C20.5 16.6 18.9 14.5 16.5 14.5C15 14.5 13.9 16.1 13.2 19.3C12.6 22.4 11.75 30.35 10.65 43.15C9.55 55.85 9 64.65 9 69.55C9 74.45 9.25 77.9 9.75 79.9C10.25 81.9 10.5 83.1 10.5 83.5C10.5 86.5 9 88 6 88C3.8 88 2.25 86.25 1.35 82.75C0.45 79.25 4.24683e-07 74.95 4.24683e-07 69.85C4.24683e-07 64.75 0.55 55.6 1.65 42.4C2.85 29.1 3.7 21.3 4.2 19ZM81 46C84 46 85.5 47.5 85.5 50.5C85.5 51.7 85.25 52.9 84.75 54.1C84.25 55.3 84 56.75 84 58.45C84 60.05 84.5 61.7 85.5 63.4C86.6 65.1 88.15 66.95 90.15 68.95C92.15 70.85 95.15 72.5 99.15 73.9C103.15 75.3 107.15 76 111.15 76C115.25 76 118.75 74.95 121.65 72.85C124.55 70.75 126 67.8 126 64C126 57.7 124.55 52.65 121.65 48.85C118.75 44.95 114.7 43 109.5 43C107.1 43 104.65 43.75 102.15 45.25C99.75 46.75 98.2 47.5 97.5 47.5C94.5 47.5 93 46 93 43C93 41.1 94.7 39.15 98.1 37.15C101.6 35.05 105.4 34 109.5 34C117.1 34 123.25 36.8 127.95 42.4C132.65 47.9 135 55.1 135 64C135 70.4 132.6 75.5 127.8 79.3C123.1 83.1 118.05 85 112.65 85C107.25 85 102.3 84.35 97.8 83.05C93.4 81.65 89.85 79.95 87.15 77.95C84.45 75.85 82.1 73.6 80.1 71.2C76.7 67 75 63.15 75 59.65C75 56.05 75.55 52.9 76.65 50.2C77.75 47.4 79.2 46 81 46ZM206.77 56.95C200.47 68.65 195.37 76.6 191.47 80.8C186.97 85.6 182.82 88 179.02 88C165.82 88 157.27 72.5 153.37 41.5C153.17 39.9 153.07 38.9 153.07 38.5C153.07 35.5 154.57 34 157.57 34C158.67 34 159.62 34.45 160.42 35.35C161.22 36.25 161.72 37.35 161.92 38.65C163.42 51.05 165.67 60.9 168.67 68.2C171.67 75.4 175.12 79 179.02 79C182.62 79 189.32 70.1 199.12 52.3C201.32 48.2 205.62 45.4 212.02 43.9C236.02 38.3 248.87 35.5 250.57 35.5C253.57 35.5 255.07 37 255.07 40C255.07 41.3 254.22 42.8 252.52 44.5C245.22 51.5 241.57 56.85 241.57 60.55C241.57 64.15 242.82 67.2 245.32 69.7C249.42 73.9 256.92 76 267.82 76C271.62 76 274.92 74.85 277.72 72.55C280.52 70.15 282.42 67.7 283.42 65.2C284.52 62.7 285.07 60.55 285.07 58.75C285.07 52.95 283.07 48.65 279.07 45.85C275.07 42.95 270.07 41.5 264.07 41.5C261.07 41.5 259.57 40 259.57 37C259.57 34 261.07 32.5 264.07 32.5C272.57 32.5 279.67 34.85 285.37 39.55C291.17 44.15 294.07 50.55 294.07 58.75C294.07 63.35 292.07 68.65 288.07 74.65C286.07 77.55 283.27 80 279.67 82C276.17 84 272.72 85 269.32 85C265.92 85 262.77 84.85 259.87 84.55C257.07 84.25 253.52 83.4 249.22 82C244.92 80.5 241.52 78.55 239.02 76.15C234.72 71.95 232.57 66.9 232.57 61C232.57 59.3 232.72 57.9 233.02 56.8C233.42 55.7 233.67 54.9 233.77 54.4C233.97 53.9 234.27 53.25 234.67 52.45C235.17 51.65 235.47 51.1 235.57 50.8C235.77 50.5 236.17 49.9 236.77 49C237.37 48 237.72 47.4 237.82 47.2L213.82 52.6C210.32 53.4 207.97 54.85 206.77 56.95Z" fill="#C0BEBE"/>
</svg>
